#!OML:ASF X:\für Bonn\!DataBase\2005_08_12_Daniel\c3d\Daniel.ASF
:FULLY-SPECIFIED
:DEGREES
71
root -3.67917 17.3413 1.2908 76.7573 -79.4184 -105.152
lowerback 42.9018 -13.6942 -3.13103
upperback 13.6586 -20.8767 -1.54692
thorax -3.60597 -11.4174 7.65237
lowerneck 4.99059 12.9697 -0.916629
upperneck 2.68398 17.0912 -6.30961
head 0.536616 8.47582 -1.92025
rclavicle 4.96962e-014 -4.29375e-014
rhumerus -59.9025 13.8299 -85.0949
rradius 38.7828
rwrist 15.6551
rhand -33.2874 39.2961
rfingers 7.12502
rthumb -6.49169 9.41563
lclavicle 4.96962e-014 -4.29375e-014
lhumerus 29.7258 -1.52631 74.661
lradius 115.188
lwrist 45.7932
lhand -14.0298 -12.8882
lfingers 7.12502
lthumb 12.1004 16.742
rfemur -61.4486 -13.4364 25.5032
rtibia 105.538
rfoot 5.81428 7.87607
rtoes -9.91564
lfemur 16.0011 -10.9165 -16.336
ltibia 28.2598
lfoot -22.5535 8.66468
ltoes 8.94914
72
root -3.68918 17.3451 1.28331 79.3693 -79.4438 -107.182
lowerback 42.0556 -13.5541 -2.9885
upperback 13.378 -20.5547 -1.39533
thorax -3.70893 -11.2094 7.55924
lowerneck 4.76289 12.8791 -0.991744
upperneck 2.97114 16.9858 -6.34653
head 0.65785 8.40703 -1.8916
rclavicle 8.26944e-014 -1.92424e-013
rhumerus -59.3395 14.3276 -86.0119
rradius 40.6993
rwrist 14.4566
rhand -33.665 39.9645
rfingers 7.12502
rthumb -6.8562 10.0955
lclavicle 8.26944e-014 -1.92424e-013
lhumerus 28.4799 -1.65847 74.8807
lradius 115.2
lwrist 45.5259
lhand -13.9677 -12.6389
lfingers 7.12502
lthumb 12.1602 16.9877
rfemur -59.1217 -12.967 24.9448
rtibia 103.615
rfoot 5.69843 6.862
rtoes -9.78927
lfemur 15.3579 -10.9714 -16.3897
ltibia 28.5339
lfoot -22.9077 9.00462
ltoes 8.96905
73
root -3.69916 17.3503 1.27485 81.8848 -79.4783 -109.12
lowerback 41.2339 -13.3987 -2.87623
upperback 13.0938 -20.2284 -1.23572
thorax -3.80502 -11.0024 7.4868
lowerneck 4.47261 12.7936 -1.04704
upperneck 3.2878 16.8942 -6.39758
head 0.802277 8.34296 -1.8649
rclavicle 6.55989e-014 -8.26944e-014
rhumerus -58.7253 14.8818 -86.9706
rradius 42.6646
rwrist 13.287
rhand -34.1289 40.5308
rfingers 7.12502
rthumb -7.30399 10.6769
lclavicle 6.55989e-014 -8.26944e-014
lhumerus 27.1397 -1.7885 75.0712
lradius 115.297
lwrist 45.2068
lhand -13.9603 -12.3862
lfingers 7.12502
lthumb 12.1674 17.2399
rfemur -56.7813 -12.4614 24.3876
rtibia 101.619
rfoot 5.66037 5.79688
rtoes -9.45466
lfemur 14.7471 -11.0032 -16.4442
ltibia 28.7261
lfoot -23.2009 9.34177
ltoes 8.99381
74
root -3.70992 17.3561 1.2652 84.4832 -79.5294 -111.149
lowerback 40.4249 -13.2112 -2.77977
upperback 12.793 -19.8685 -1.07527
thorax -3.91574 -10.7773 7.41457
lowerneck 4.22409 12.6957 -1.14928
upperneck 3.58021 16.7811 -6.39431
head 0.922609 8.26883 -1.82027
rclavicle -6.83819e-014 8.82604e-014
rhumerus -58.0791 15.3833 -87.8934
rradius 44.6383
rwrist 12.3293
rhand -34.6531 40.9589
rfingers 7.12502
rthumb -7.80994 11.1232
lclavicle -6.83819e-014 8.82604e-014
lhumerus 25.7333 -1.9514 75.3017
lradius 115.411
lwrist 44.8841
lhand -13.9545 -12.1554
lfingers 7.12502
lthumb 12.173 17.4705
rfemur -54.4401 -11.8647 23.8276
rtibia 99.5542
rfoot 5.65054 4.61209
rtoes -9.14732
lfemur 14.1779 -11.0241 -16.5322
ltibia 28.8771
lfoot -23.4801 9.68957
ltoes 8.94509
75
root -3.71977 17.3646 1.25375 87.0189 -79.5731 -113.115
lowerback 39.651 -13.0067 -2.71264
upperback 12.4656 -19.4966 -0.888208
thorax -4.04446 -10.5466 7.38575
lowerneck 3.91449 12.6034 -1.18257
upperneck 3.96683 16.687 -6.4385
head 1.09437 8.19954 -1.79249
rclavicle 3.97569e-015 6.04305e-014
rhumerus -57.3953 15.9266 -88.8057
rradius 46.6033
rwrist 11.4526
rhand -35.2062 41.2081
rfingers 7.12502
rthumb -8.34377 11.3929
lclavicle 3.97569e-015 6.04305e-014
lhumerus 24.2549 -2.13254 75.4865
lradius 115.486
lwrist 44.5821
lhand -14.0492 -11.9447
lfingers 7.12502
lthumb 12.0816 17.6865
rfemur -52.1169 -11.2454 23.3072
rtibia 97.4094
rfoot 5.6169 3.41412
rtoes -8.77692
lfemur 13.5865 -11.0153 -16.5856
ltibia 29.0424
lfoot -23.7591 9.94301
ltoes 8.96447
